<?xml version="1.0" encoding="utf-8" ?>
<svg baseProfile="tiny" height="1024" version="1.2" width="1024" xmlns="http://www.w3.org/2000/svg" xmlns:ev="http://www.w3.org/2001/xml-events" xmlns:xlink="http://www.w3.org/1999/xlink"><defs /><polygon fill="black" points="305.0,115.0 304.0,116.0 282.0,116.0 281.0,117.0 269.0,117.0 268.0,118.0 260.0,118.0 259.0,119.0 253.0,119.0 252.0,120.0 247.0,120.0 246.0,121.0 242.0,121.0 241.0,122.0 237.0,122.0 236.0,123.0 233.0,123.0 232.0,124.0 229.0,124.0 228.0,125.0 226.0,125.0 225.0,126.0 222.0,126.0 221.0,127.0 219.0,127.0 218.0,128.0 216.0,128.0 215.0,129.0 213.0,129.0 212.0,130.0 211.0,130.0 210.0,131.0 208.0,131.0 207.0,132.0 206.0,132.0 205.0,133.0 204.0,133.0 203.0,134.0 201.0,134.0 199.0,136.0 198.0,136.0 197.0,137.0 196.0,137.0 195.0,138.0 194.0,138.0 193.0,139.0 192.0,139.0 191.0,140.0 190.0,140.0 188.0,142.0 187.0,142.0 186.0,143.0 185.0,143.0 183.0,145.0 182.0,145.0 180.0,147.0 179.0,147.0 176.0,150.0 175.0,150.0 172.0,153.0 171.0,153.0 167.0,157.0 166.0,157.0 149.0,174.0 149.0,175.0 144.0,180.0 144.0,181.0 141.0,184.0 141.0,185.0 138.0,188.0 138.0,189.0 136.0,191.0 136.0,192.0 135.0,193.0 135.0,194.0 133.0,196.0 133.0,197.0 131.0,199.0 131.0,200.0 130.0,201.0 130.0,202.0 129.0,203.0 129.0,204.0 128.0,205.0 128.0,206.0 127.0,207.0 127.0,208.0 126.0,209.0 126.0,210.0 125.0,211.0 125.0,212.0 124.0,213.0 124.0,214.0 123.0,215.0 123.0,216.0 122.0,217.0 122.0,219.0 121.0,220.0 121.0,221.0 120.0,222.0 120.0,224.0 119.0,225.0 119.0,227.0 118.0,228.0 118.0,230.0 117.0,231.0 117.0,233.0 116.0,234.0 116.0,237.0 115.0,238.0 115.0,241.0 114.0,242.0 114.0,245.0 113.0,246.0 113.0,250.0 112.0,251.0 112.0,256.0 111.0,257.0 111.0,263.0 110.0,264.0 110.0,270.0 109.0,271.0 109.0,279.0 108.0,280.0 108.0,291.0 107.0,292.0 107.0,311.0 106.0,312.0 106.0,708.0 107.0,709.0 107.0,728.0 108.0,729.0 108.0,740.0 109.0,741.0 109.0,749.0 110.0,750.0 110.0,756.0 111.0,757.0 111.0,763.0 112.0,764.0 112.0,768.0 113.0,769.0 113.0,774.0 114.0,775.0 114.0,778.0 115.0,779.0 115.0,782.0 116.0,783.0 116.0,786.0 117.0,787.0 117.0,790.0 118.0,791.0 118.0,793.0 119.0,794.0 119.0,796.0 120.0,797.0 120.0,798.0 121.0,799.0 121.0,801.0 122.0,802.0 122.0,803.0 123.0,804.0 123.0,806.0 124.0,807.0 124.0,808.0 125.0,809.0 125.0,810.0 126.0,811.0 126.0,812.0 127.0,813.0 127.0,814.0 128.0,815.0 128.0,816.0 129.0,817.0 129.0,818.0 130.0,819.0 130.0,820.0 131.0,821.0 131.0,822.0 132.0,823.0 132.0,824.0 134.0,826.0 134.0,827.0 135.0,828.0 135.0,829.0 137.0,831.0 137.0,832.0 138.0,833.0 138.0,834.0 141.0,837.0 141.0,838.0 144.0,841.0 144.0,842.0 148.0,846.0 148.0,847.0 157.0,856.0 157.0,857.0 158.0,857.0 159.0,858.0 159.0,859.0 160.0,860.0 161.0,860.0 169.0,868.0 170.0,868.0 173.0,871.0 174.0,871.0 177.0,874.0 178.0,874.0 181.0,877.0 182.0,877.0 184.0,879.0 185.0,879.0 186.0,880.0 187.0,880.0 189.0,882.0 190.0,882.0 191.0,883.0 192.0,883.0 193.0,884.0 194.0,884.0 196.0,886.0 197.0,886.0 198.0,887.0 200.0,887.0 201.0,888.0 202.0,888.0 203.0,889.0 204.0,889.0 205.0,890.0 206.0,890.0 207.0,891.0 208.0,891.0 209.0,892.0 211.0,892.0 212.0,893.0 214.0,893.0 215.0,894.0 217.0,894.0 218.0,895.0 219.0,895.0 220.0,896.0 222.0,896.0 223.0,897.0 226.0,897.0 227.0,898.0 229.0,898.0 230.0,899.0 233.0,899.0 234.0,900.0 237.0,900.0 238.0,901.0 242.0,901.0 243.0,902.0 248.0,902.0 249.0,903.0 254.0,903.0 255.0,904.0 261.0,904.0 262.0,905.0 271.0,905.0 272.0,906.0 285.0,906.0 286.0,907.0 387.0,907.0 388.0,908.0 389.0,907.0 399.0,907.0 400.0,908.0 401.0,907.0 434.0,907.0 435.0,908.0 436.0,907.0 455.0,907.0 456.0,908.0 457.0,907.0 466.0,907.0 467.0,908.0 468.0,907.0 501.0,907.0 502.0,908.0 503.0,907.0 523.0,907.0 524.0,908.0 525.0,907.0 549.0,907.0 550.0,908.0 551.0,907.0 559.0,907.0 560.0,908.0 561.0,907.0 653.0,907.0 654.0,908.0 655.0,907.0 738.0,907.0 739.0,906.0 751.0,906.0 752.0,905.0 760.0,905.0 761.0,904.0 768.0,904.0 769.0,903.0 774.0,903.0 775.0,902.0 779.0,902.0 780.0,901.0 784.0,901.0 785.0,900.0 789.0,900.0 790.0,899.0 792.0,899.0 793.0,898.0 796.0,898.0 797.0,897.0 799.0,897.0 800.0,896.0 802.0,896.0 803.0,895.0 805.0,895.0 806.0,894.0 808.0,894.0 809.0,893.0 810.0,893.0 811.0,892.0 813.0,892.0 814.0,891.0 815.0,891.0 816.0,890.0 818.0,890.0 819.0,889.0 820.0,889.0 821.0,888.0 822.0,888.0 823.0,887.0 824.0,887.0 825.0,886.0 826.0,886.0 827.0,885.0 828.0,885.0 829.0,884.0 830.0,884.0 832.0,882.0 833.0,882.0 834.0,881.0 835.0,881.0 836.0,880.0 837.0,880.0 839.0,878.0 840.0,878.0 842.0,876.0 843.0,876.0 846.0,873.0 847.0,873.0 849.0,871.0 850.0,871.0 855.0,866.0 856.0,866.0 872.0,850.0 872.0,849.0 878.0,843.0 878.0,842.0 881.0,839.0 881.0,838.0 884.0,835.0 884.0,834.0 885.0,833.0 885.0,832.0 887.0,830.0 887.0,829.0 889.0,827.0 889.0,826.0 890.0,825.0 890.0,824.0 892.0,822.0 892.0,821.0 893.0,820.0 893.0,819.0 894.0,818.0 894.0,817.0 895.0,816.0 895.0,815.0 896.0,814.0 896.0,813.0 897.0,812.0 897.0,811.0 898.0,810.0 898.0,808.0 899.0,807.0 899.0,806.0 900.0,805.0 900.0,803.0 901.0,802.0 901.0,801.0 902.0,800.0 902.0,798.0 903.0,797.0 903.0,795.0 904.0,794.0 904.0,792.0 905.0,791.0 905.0,789.0 906.0,788.0 906.0,785.0 907.0,784.0 907.0,781.0 908.0,780.0 908.0,777.0 909.0,776.0 909.0,772.0 910.0,771.0 910.0,766.0 911.0,765.0 911.0,760.0 912.0,759.0 912.0,753.0 913.0,752.0 913.0,744.0 914.0,743.0 914.0,734.0 915.0,733.0 915.0,716.0 916.0,715.0 916.0,303.0 915.0,302.0 915.0,286.0 914.0,285.0 914.0,274.0 913.0,273.0 913.0,267.0 912.0,266.0 912.0,260.0 911.0,259.0 911.0,254.0 910.0,253.0 910.0,248.0 909.0,247.0 909.0,243.0 908.0,242.0 908.0,239.0 907.0,238.0 907.0,235.0 906.0,234.0 906.0,232.0 905.0,231.0 905.0,229.0 904.0,228.0 904.0,226.0 903.0,225.0 903.0,223.0 902.0,222.0 902.0,220.0 901.0,219.0 901.0,218.0 900.0,217.0 900.0,216.0 899.0,215.0 899.0,213.0 898.0,212.0 898.0,211.0 897.0,210.0 897.0,209.0 896.0,208.0 896.0,207.0 894.0,205.0 894.0,204.0 893.0,203.0 893.0,202.0 892.0,201.0 892.0,200.0 890.0,198.0 890.0,197.0 889.0,196.0 889.0,195.0 887.0,193.0 887.0,192.0 885.0,190.0 885.0,189.0 883.0,187.0 883.0,186.0 880.0,183.0 880.0,182.0 875.0,177.0 875.0,176.0 859.0,160.0 858.0,160.0 853.0,155.0 852.0,155.0 848.0,151.0 847.0,151.0 845.0,149.0 844.0,149.0 842.0,147.0 841.0,147.0 839.0,145.0 838.0,145.0 837.0,144.0 836.0,144.0 834.0,142.0 833.0,142.0 832.0,141.0 831.0,141.0 830.0,140.0 829.0,140.0 828.0,139.0 827.0,139.0 825.0,137.0 824.0,137.0 823.0,136.0 821.0,136.0 820.0,135.0 819.0,135.0 818.0,134.0 817.0,134.0 816.0,133.0 815.0,133.0 814.0,132.0 812.0,132.0 811.0,131.0 809.0,131.0 808.0,130.0 807.0,130.0 806.0,129.0 804.0,129.0 803.0,128.0 801.0,128.0 800.0,127.0 798.0,127.0 797.0,126.0 794.0,126.0 793.0,125.0 790.0,125.0 789.0,124.0 787.0,124.0 786.0,123.0 782.0,123.0 781.0,122.0 777.0,122.0 776.0,121.0 772.0,121.0 771.0,120.0 766.0,120.0 765.0,119.0 758.0,119.0 757.0,118.0 748.0,118.0 747.0,117.0 735.0,117.0 734.0,116.0 703.0,116.0 702.0,115.0 309.0,115.0 308.0,116.0 306.0,116.0" /></svg>