<svg width="103" height="125" viewBox="0 0 103 125" fill="none" xmlns="http://www.w3.org/2000/svg">
<rect width="103" height="125" rx="15" fill="#5C6BC0"/>
<path d="M16 109.5V14C16 11.2386 18.2386 9 21 9H62.9289C64.255 9 65.5268 9.52679 66.4645 10.4645L85.5355 29.5355C86.4732 30.4732 87 31.745 87 33.0711V109.5C87 112.261 84.7614 114.5 82 114.5H21C18.2386 114.5 16 112.261 16 109.5Z" fill="white"/>
<path d="M86 30L66 10V30H86Z" fill="#1A237E"/>
<rect x="24" y="20" width="20" height="20" fill="#9FA8DA"/>
<rect x="55" y="88" width="20" height="20" fill="#9FA8DA"/>
<line x1="23" y1="46.75" x2="75" y2="46.75" stroke="#1A237E" stroke-width="0.5"/>
<line x1="23" y1="64.75" x2="75" y2="64.75" stroke="#1A237E" stroke-width="0.5"/>
<line x1="23" y1="49.75" x2="75" y2="49.75" stroke="#1A237E" stroke-width="0.5"/>
<line x1="23" y1="67.75" x2="75" y2="67.75" stroke="#1A237E" stroke-width="0.5"/>
<line x1="23" y1="52.75" x2="75" y2="52.75" stroke="#1A237E" stroke-width="0.5"/>
<line x1="23" y1="70.75" x2="75" y2="70.75" stroke="#1A237E" stroke-width="0.5"/>
<line x1="23" y1="55.75" x2="75" y2="55.75" stroke="#1A237E" stroke-width="0.5"/>
<line x1="23" y1="73.75" x2="75" y2="73.75" stroke="#1A237E" stroke-width="0.5"/>
<line x1="23" y1="58.75" x2="75" y2="58.75" stroke="#1A237E" stroke-width="0.5"/>
<line x1="23" y1="76.75" x2="75" y2="76.75" stroke="#1A237E" stroke-width="0.5"/>
<line x1="23" y1="61.75" x2="51" y2="61.75" stroke="#1A237E" stroke-width="0.5"/>
<line x1="23" y1="79.75" x2="51" y2="79.75" stroke="#1A237E" stroke-width="0.5"/>
<rect x="56.3606" y="73.6207" width="6.00002" height="45.6123" rx="3.00001" transform="rotate(-31.3564 56.3606 73.6207)" fill="#5C6BC0"/>
<rect x="61.751" y="84.3885" width="8.30588" height="45.6123" rx="3.5" transform="rotate(-31.3564 61.751 84.3885)" fill="#1A237E"/>
<circle cx="46.2292" cy="51.2292" r="26.5" transform="rotate(-31.3564 46.2292 51.2292)" stroke="#1A237E" stroke-width="7"/>
</svg>
